<svg fill="none" xmlns="http://www.w3.org/2000/svg" width="137" height="32" viewBox="0 0 137 32">
  <rect width="137" height="32" rx="4" fill="#10A3F5"/>
  <path d="M0 4a4 4 0 0 1 4-4h28v32H4a4 4 0 0 1-4-4V4Z" fill="#0091E2"/>
  <path d="M23.547 14.652c-.042-.033-.43-.326-1.249-.326-.216.001-.431.02-.644.056-.159-1.086-1.057-1.616-1.097-1.64l-.22-.126-.144.208c-.181.28-.314.59-.391.914-.147.62-.058 1.202.257 1.7-.38.212-.99.264-1.113.268H8.848a.48.48 0 0 0-.48.478 7.266 7.266 0 0 0 .443 2.595c.347.912.865 1.584 1.538 1.995.755.462 1.98.726 3.37.726.628.002 1.254-.055 1.872-.17a7.826 7.826 0 0 0 2.442-.887A6.714 6.714 0 0 0 19.7 19.08c.8-.906 1.276-1.915 1.63-2.81h.142c.876 0 1.415-.351 1.712-.645a1.87 1.87 0 0 0 .451-.669l.063-.183-.151-.12Z" fill="#fff"/>
  <path d="M9.784 15.41h1.353a.118.118 0 0 0 .118-.117v-1.206a.118.118 0 0 0-.118-.119H9.784a.118.118 0 0 0-.119.118v1.207c0 .065.053.118.119.118Zm1.864 0h1.354a.118.118 0 0 0 .118-.117v-1.206a.118.118 0 0 0-.118-.119h-1.354a.119.119 0 0 0-.118.12v1.205c0 .065.053.118.118.118Zm1.893 0h1.354a.118.118 0 0 0 .118-.117v-1.206a.118.118 0 0 0-.118-.119h-1.354a.118.118 0 0 0-.118.118v1.207c0 .065.053.118.118.118Zm1.871 0h1.353a.119.119 0 0 0 .12-.117v-1.206a.119.119 0 0 0-.12-.119h-1.353a.118.118 0 0 0-.118.118v1.207c0 .065.053.118.118.118Zm-3.764-1.733h1.354a.119.119 0 0 0 .118-.12v-1.205a.118.118 0 0 0-.118-.118h-1.354a.119.119 0 0 0-.118.118v1.206a.12.12 0 0 0 .118.119Zm1.893 0h1.354a.119.119 0 0 0 .118-.12v-1.205a.118.118 0 0 0-.118-.118H13.54a.118.118 0 0 0-.118.118v1.206a.12.12 0 0 0 .118.119Zm1.871 0h1.353a.12.12 0 0 0 .12-.12v-1.205a.119.119 0 0 0-.12-.118h-1.353a.118.118 0 0 0-.118.118v1.206a.12.12 0 0 0 .118.119Zm0-1.735h1.353a.119.119 0 0 0 .12-.118v-1.206a.119.119 0 0 0-.12-.119h-1.353a.118.118 0 0 0-.118.119v1.206c0 .065.053.118.118.118ZM17.3 15.41h1.353a.119.119 0 0 0 .119-.117v-1.206a.119.119 0 0 0-.12-.119H17.3a.118.118 0 0 0-.118.118v1.207c0 .065.053.118.118.118Zm28.699-2.857h-2.882V20.5h-1.593v-7.947h-2.857v-1.295H46v1.295Zm4.247 2.488a3.823 3.823 0 0 0-.629-.05c-.706 0-1.183.27-1.428.812V20.5h-1.542v-6.868h1.472l.038.768c.373-.597.889-.895 1.55-.895.22 0 .401.03.545.089l-.006 1.447Zm3.491 3.25 1.396-4.66h1.644l-2.73 7.91c-.418 1.155-1.129 1.733-2.132 1.733-.224 0-.472-.038-.743-.114v-1.194l.292.02c.39 0 .682-.073.876-.216.2-.14.356-.377.47-.711l.222-.59-2.412-6.837h1.663l1.454 4.659Zm13.203.082 1.092-4.741h1.504L67.664 20.5h-1.27l-1.473-4.716-1.447 4.716h-1.27l-1.878-6.868h1.504l1.11 4.69 1.41-4.69h1.162l1.428 4.742Zm5.269 2.127h-1.543v-6.868h1.543V20.5Zm-1.638-8.652c0-.237.074-.434.222-.59.152-.157.368-.235.647-.235.28 0 .496.078.648.235a.813.813 0 0 1 .228.59.804.804 0 0 1-.228.584c-.152.152-.368.229-.648.229-.279 0-.495-.076-.647-.229a.817.817 0 0 1-.222-.584Zm5.256.114v1.67h1.212v1.142h-1.212v3.834c0 .263.05.453.152.572.106.114.292.171.559.171.177 0 .357-.021.54-.063v1.193a3.8 3.8 0 0 1-1.017.146c-1.184 0-1.777-.654-1.777-1.961v-3.892h-1.13v-1.142h1.13v-1.67h1.543Zm3.916 2.418a2.414 2.414 0 0 1 1.91-.875c1.465 0 2.208.836 2.229 2.507V20.5h-1.543v-4.43c0-.475-.103-.809-.31-1.004-.204-.199-.504-.298-.902-.298-.618 0-1.08.275-1.384.825V20.5h-1.542v-9.75h1.542v3.63Zm9.09 6.12v-9.242h2.73c.816 0 1.54.182 2.17.546.635.364 1.126.88 1.473 1.548.347.67.52 1.435.52 2.298v.464c0 .876-.175 1.646-.526 2.31a3.652 3.652 0 0 1-1.492 1.536c-.643.36-1.382.54-2.215.54h-2.66Zm1.606-7.947v6.665h1.047c.843 0 1.488-.263 1.936-.787.453-.53.684-1.287.692-2.273v-.514c0-1.003-.218-1.769-.654-2.298-.435-.529-1.068-.793-1.897-.793h-1.124Zm6.449 4.449c0-.672.133-1.278.4-1.815a2.896 2.896 0 0 1 1.124-1.244c.482-.292 1.036-.438 1.663-.438.926 0 1.678.298 2.253.895.58.597.893 1.388.94 2.374l.006.362c0 .677-.131 1.282-.394 1.815-.258.533-.63.946-1.117 1.238-.482.292-1.041.438-1.676.438-.969 0-1.745-.322-2.33-.965-.579-.647-.869-1.508-.869-2.583v-.077Zm1.543.134c0 .706.146 1.26.438 1.663.292.398.698.596 1.218.596.521 0 .925-.203 1.213-.609.292-.406.438-1 .438-1.784 0-.694-.15-1.244-.451-1.65-.296-.406-.7-.61-1.212-.61-.504 0-.904.202-1.2.604-.296.397-.444.994-.444 1.79Zm8.969 2.259c.385 0 .704-.112.958-.336a1.15 1.15 0 0 0 .407-.832h1.453a2.28 2.28 0 0 1-.4 1.2c-.249.368-.588.66-1.015.876a3.03 3.03 0 0 1-1.384.324c-.961 0-1.722-.311-2.285-.933-.563-.622-.844-1.481-.844-2.577v-.159c0-1.045.279-1.881.837-2.507.559-.63 1.321-.946 2.286-.946.816 0 1.481.239 1.993.717.516.474.787 1.098.812 1.873h-1.453c-.017-.394-.153-.718-.407-.971-.249-.254-.569-.381-.958-.381-.499 0-.885.182-1.155.546-.271.36-.409.907-.413 1.644v.247c0 .745.133 1.301.4 1.67.271.363.66.545 1.168.545Zm6.214-1.84-.685.704V20.5h-1.543v-9.75h1.543v5.624l.482-.603 1.898-2.14h1.854l-2.552 2.864 2.825 4.005h-1.784l-2.038-2.945Zm7.459 3.072c-.978 0-1.771-.307-2.381-.92-.605-.618-.907-1.44-.907-2.463v-.19c0-.686.131-1.298.393-1.835a3.04 3.04 0 0 1 1.117-1.263 2.953 2.953 0 0 1 1.6-.451c.935 0 1.657.298 2.165.895.512.597.768 1.44.768 2.533v.622h-4.488c.046.567.235 1.015.565 1.345.334.33.753.495 1.257.495.706 0 1.282-.285 1.726-.856l.832.793c-.275.41-.644.73-1.105.959a3.453 3.453 0 0 1-1.542.336Zm-.184-5.884c-.424 0-.766.148-1.029.444-.258.296-.423.709-.495 1.238h2.939v-.114c-.034-.517-.171-.906-.412-1.168-.242-.267-.576-.4-1.003-.4Zm7.737.298a3.815 3.815 0 0 0-.628-.05c-.707 0-1.183.27-1.428.812V20.5h-1.543v-6.868h1.473l.038.768c.372-.597.889-.895 1.549-.895.22 0 .402.03.546.089l-.007 1.447Z" fill="#fff"/>
</svg>